<svg data-v-0dd9719b="" version="1.0" xmlns="http://www.w3.org/2000/svg" xmlns:xlink="http://www.w3.org/1999/xlink" width="100%" height="100%" viewBox="0 0 340.000000 250.000000" preserveAspectRatio="xMidYMid meet" color-interpolation-filters="sRGB" style="margin: auto;"> <rect data-v-0dd9719b="" x="0" y="0" width="100%" height="100%" fill="#fff" fill-opacity="1" class="background"></rect> <rect data-v-0dd9719b="" x="0" y="0" width="100%" height="100%" fill="url(#watermark)" fill-opacity="1" class="watermarklayer"></rect> <g data-v-0dd9719b="" fill="#333" class="icon-text-wrapper icon-svg-group iconsvg" transform="translate(53.899993896484375,90.42703247070312)"><g class="iconsvg-imagesvg" transform="translate(0,0)"><g><rect fill="#333" fill-opacity="0" stroke-width="2" x="0" y="0" width="60" height="69.14593249052125" class="image-rect"></rect> <svg x="0" y="0" width="60" height="69.14593249052125" filtersec="colorsb9202585155" class="image-svg-svg primary" style="overflow: visible;"><svg xmlns="http://www.w3.org/2000/svg" viewBox="-0.018470728769898415 0.005428065080195665 113.37003326416016 130.65081787109375"><title>资源 24</title><path d="M.75 32.77c.82-2 2.92-2.31 4.48-3.22C17.4 22.41 29.65 15.4 41.86 8.35c4.45-2.58 8.92-5.12 13.31-7.8a3.09 3.09 0 0 1 3.74.18C62.21 2.87 65.55 5 69 6.83c5.12 2.67 10.09 5.57 15.1 8.41 9.18 5.19 18.3 10.51 27.42 15.8 2.47 1.43 2.45 1.65-.11 3.13q-12.34 7.13-24.68 14.2a8.58 8.58 0 0 0-.9.69 3.14 3.14 0 0 0-1.83.74c-8.27 4.8-16.56 9.57-24.81 14.43-1.52.9-2.76 1.12-4.34.1-2.64-1.73-5.4-3.27-8.15-4.84-6.18-3.49-12.34-7-18.5-10.49-1.49-.92-2.95-1.86-4.45-2.75z" fill="#fb7cc9"></path><path d="M86.05 82.16l16.39 9.44c3.2 1.85 6.36 3.76 9.59 5.53 1.51.83 1.55 1.27 0 2.15q-20.76 11.91-41.47 23.91c-3.95 2.28-7.92 4.52-11.83 6.86a3 3 0 0 1-3.52.07Q28.31 114.49 1.34 99c-.43-.25-1-.38-1.07-1a2.73 2.73 0 0 0 .65-.2L27 82.71a1.55 1.55 0 0 0 .81-1.27c4.15 2 7.87 4.71 11.92 6.86 5.34 2.85 10.49 6 15.68 9.19a2.74 2.74 0 0 0 3.1 0c3.09-1.6 5.88-3.64 8.85-5.4 4.59-2.73 9.3-5.27 13.87-8.08 1.39-.88 2.77-2.53 4.82-1.85z" fill="#4b4ad6"></path><path d="M112.41 64.61c-5.39-3.12-10.66-6.44-16.18-9.3-3.61-1.88-6.84-4.33-10.4-6.25a3.14 3.14 0 0 0-1.83.74c-8.27 4.8-16.56 9.57-24.81 14.43-1.52.9-2.76 1.12-4.34.1-2.64-1.73-5.4-3.27-8.15-4.84-6.18-3.49-12.34-7-18.5-10.49l-16.84 9.85L.76 65v.8c2.41 1.24 4.58 2.92 7.13 3.89h.08a.46.46 0 0 1 .55.4c5.85 3.74 12 7.08 18 10.52.45.25.86.56 1.29.84 4.15 2 7.87 4.72 11.92 6.87 5.34 2.85 10.49 6 15.68 9.19a2.74 2.74 0 0 0 3.1 0c3.09-1.6 5.88-3.64 8.85-5.4 4.59-2.73 9.3-5.27 13.87-8.08 1.4-.86 2.74-2.51 4.83-1.83 0-.7.53-1 1.07-1.32C88.77 79.91 90.41 79 92 78c4.55-2.81 9.45-5 13.77-8.2l6.78-3.67c1.2-.65.63-1.07-.14-1.52zM8.23 69.09a1.34 1.34 0 0 1 .5-.3 1.34 1.34 0 0 0-.5.3zM9 68.7l.58-.1z" fill="#3d9ceb"></path><path d="M28.2 49l-16.84 9.85L.76 65l-.59-.08q0-15.44-.11-30.88c0-.56.09-1.06.69-1.29l23 13.48c1.5.91 2.96 1.85 4.45 2.77zM.76 65.82c2.41 1.24 4.58 2.92 7.13 3.89h.08l.55.4c5.85 3.74 12 7.08 18 10.52.45.25.86.56 1.29.84a1.56 1.56 0 0 1-.81 1.24L.92 97.73a2.73 2.73 0 0 1-.65.2 19.7 19.7 0 0 1-.22-5c0-9 .08-18 .12-27z" fill="#26105d"></path><path d="M.76 65.82l-.59.09a.83.83 0 0 1 0-1l.59.09z" fill="#4b4ad6"></path><path d="M8.52 70.07l-.52-.4a.46.46 0 0 1 .52.4z" fill="#3d9ceb"></path></svg></svg> <!----></g></g> <g transform="translate(67,12.04296875)"><g data-gra="path-name" fill-rule="" class="tp-name iconsvg-namesvg"><g transform="scale(1)"><g><path d="M20.04-42.77L27.83-43.01Q27.69-40.63 27.58-38.07 27.48-35.51 27.41-32.93 27.33-30.35 27.29-27.86 27.25-25.37 27.22-23.17 27.19-20.98 27.19-19.16 27.19-17.34 27.19-16.08L27.19-16.08Q27.19-14.44 27.19-12.45 27.19-10.46 27.22-8.35 27.25-6.24 27.29-4.12 27.33-1.99 27.42-0.12L27.42-0.12Q26.16-0.18 25.12-0.18 24.08-0.18 23.23-0.18L23.23-0.18Q21.71-0.18 20.71-0.15 19.72-0.12 19.13-0.06L19.13-0.06Q18.43 0 18.05 0.06L18.05 0.06Q17.96-0.56 17.68-1.86 17.4-3.16 16.98-4.95 16.55-6.74 16-8.91 15.44-11.07 14.81-13.42 14.18-15.76 13.51-18.18 12.83-20.6 12.17-22.9 11.51-25.2 10.88-27.26 10.25-29.33 9.73-30.97L9.73-30.97Q9.49-27.22 9.38-24.04 9.26-20.86 9.2-18.49L9.2-18.49Q9.11-15.73 9.11-13.45L9.11-13.45Q9.11-11.48 9.2-9.29L9.2-9.29Q9.26-7.41 9.42-5.01 9.58-2.61 9.9-0.12L9.9-0.12Q7.65-0.21 6.2-0.22 4.75-0.23 3.9-0.23L3.9-0.23 2.46-0.23Q2.61-5.48 2.7-9.14 2.78-12.8 2.83-15.28 2.87-17.75 2.89-19.25 2.9-20.74 2.9-21.67 2.9-22.59 2.89-23.14 2.87-23.7 2.87-24.29L2.87-24.29Q2.87-25.75 2.86-27.77 2.84-29.79 2.78-32.12 2.72-34.45 2.61-36.97 2.49-39.49 2.29-41.95L2.29-41.95Q5.27-41.95 7.21-42.01 9.14-42.07 10.28-42.13L10.28-42.13Q11.63-42.22 12.36-42.3L12.36-42.3Q12.51-41.37 12.96-39.38 13.42-37.38 14.05-34.76 14.68-32.14 15.47-29.09 16.26-26.04 17.09-22.95 17.93-19.86 18.78-16.95 19.63-14.03 20.39-11.69L20.39-11.69Q20.54-14.18 20.61-16.77 20.68-19.37 20.73-21.62 20.77-23.88 20.77-25.56 20.77-27.25 20.77-27.89L20.77-27.89Q20.74-30.56 20.65-33.22L20.65-33.22Q20.63-34.37 20.57-35.6 20.51-36.83 20.43-38.07 20.36-39.32 20.26-40.52 20.16-41.72 20.04-42.77L20.04-42.77ZM40.49 0.29L40.49 0.29 32.75 1.08Q32.81-0.88 32.86-3 32.9-5.13 32.93-7.24 32.96-9.35 32.99-11.38 33.02-13.42 33.02-15.23L33.02-15.23Q33.05-19.51 33.05-23.64L33.05-23.64Q33.02-27.33 32.96-30.79L32.96-30.79Q32.93-32.26 32.89-33.81 32.84-35.36 32.78-36.86 32.72-38.35 32.65-39.68 32.58-41.02 32.46-42.07L32.46-42.07 39.84-42.42Q39.79-40.61 39.74-38.69 39.7-36.77 39.67-34.88 39.64-32.99 39.62-31.23 39.61-29.47 39.61-27.95L39.61-27.95Q39.61-20.3 39.8-13.37 39.99-6.45 40.49 0.29ZM71.46-21.01L71.46-21.01Q71.46-16.32 70.58-12.22 69.7-8.12 67.97-5.05 66.24-1.99 63.68-0.22 61.11 1.55 57.77 1.55L57.77 1.55Q54.38 1.55 51.81-0.22 49.25-1.99 47.53-5.05 45.82-8.12 44.96-12.22 44.09-16.32 44.09-21.01L44.09-21.01Q44.09-25.66 44.93-29.77 45.76-33.87 47.46-36.91 49.16-39.96 51.74-41.73 54.32-43.51 57.77-43.51L57.77-43.51Q61.35-43.51 63.94-41.73 66.53-39.96 68.2-36.91 69.87-33.87 70.66-29.77 71.46-25.66 71.46-21.01ZM63.78-21.01L63.78-21.01Q63.78-24.64 63.49-27.85 63.19-31.05 62.5-33.44 61.82-35.83 60.66-37.21 59.5-38.58 57.77-38.58L57.77-38.58Q56.1-38.58 54.96-37.21 53.82-35.83 53.12-33.44 52.41-31.05 52.09-27.85 51.77-24.64 51.77-21.01L51.77-21.01Q51.77-17.34 52.09-14.14 52.41-10.93 53.13-8.54 53.85-6.15 54.99-4.76 56.13-3.37 57.77-3.37L57.77-3.37Q59.38-3.37 60.53-4.76 61.67-6.15 62.4-8.54 63.13-10.93 63.46-14.14 63.78-17.34 63.78-21.01ZM107.52 0.73L107.52 0.73 99.46 1.32Q99.73-2.55 99.89-5.77 100.05-8.99 100.11-11.37L100.11-11.37Q100.2-14.12 100.2-16.38L100.2-16.38Q100.2-17.43 100.17-18.75L100.17-18.75Q100.14-19.86 100.09-21.42 100.05-22.97 99.96-24.84L99.96-24.84Q99.2-21.3 98.63-18.74 98.06-16.17 97.71-14.5L97.71-14.5Q97.27-12.54 97-11.22L97-11.22Q96.59-9.43 96.27-7.65L96.27-7.65Q95.98-6.12 95.71-4.39 95.45-2.67 95.33-1.26L95.33-1.26 87.83-1.32Q87.22-5.13 86.59-8.63 85.96-12.13 85.3-15.4 84.64-18.66 83.95-21.75 83.26-24.84 82.5-27.89L82.5-27.89Q82.35-24.96 82.29-22.59 82.24-20.21 82.24-18.49L82.24-18.49Q82.24-13.51 82.5-9.05 82.76-4.6 83.2-0.23L83.2-0.23 74.56 0Q74.77-2.11 74.91-4.56 75.06-7 75.16-9.51 75.26-12.01 75.32-14.43 75.38-16.85 75.41-18.96 75.44-21.06 75.45-22.71 75.47-24.35 75.47-25.25L75.47-25.25Q75.47-26.89 75.45-29 75.44-31.11 75.4-33.33 75.35-35.54 75.29-37.66 75.23-39.79 75.12-41.46L75.12-41.46Q76.52-41.4 77.78-41.37 79.04-41.34 80.16-41.34L80.16-41.34Q83-41.34 84.58-41.43L84.58-41.43Q85.52-41.46 86.22-41.51L86.22-41.51Q86.63-37.79 87.11-34.26 87.6-30.73 88.18-27.33 88.77-23.94 89.46-20.61 90.15-17.29 90.94-13.97L90.94-13.97Q91.99-17.7 92.96-21.27 93.93-24.84 94.72-28.33 95.51-31.82 96.09-35.24 96.68-38.67 97-42.07L97-42.07Q98.09-42.01 99.02-41.98 99.96-41.95 100.78-41.95L100.78-41.95Q102.45-41.95 103.61-42.01 104.77-42.07 105.53-42.16L105.53-42.16Q106.41-42.25 106.96-42.36L106.96-42.36Q106.73-39.29 106.58-36.27 106.44-33.25 106.36-30.53 106.29-27.8 106.27-25.53 106.26-23.26 106.26-21.71L106.26-21.71Q106.26-21.06 106.27-19.72 106.29-18.37 106.35-16.54 106.41-14.71 106.49-12.54 106.58-10.37 106.71-8.09 106.85-5.8 107.05-3.54 107.26-1.29 107.52 0.73ZM138.22-21.01L138.22-21.01Q138.22-16.32 137.34-12.22 136.46-8.12 134.74-5.05 133.01-1.99 130.44-0.22 127.88 1.55 124.54 1.55L124.54 1.55Q121.14 1.55 118.58-0.22 116.02-1.99 114.3-5.05 112.59-8.12 111.72-12.22 110.86-16.32 110.86-21.01L110.86-21.01Q110.86-25.66 111.69-29.77 112.53-33.87 114.23-36.91 115.93-39.96 118.51-41.73 121.08-43.51 124.54-43.51L124.54-43.51Q128.12-43.51 130.71-41.73 133.3-39.96 134.97-36.91 136.64-33.87 137.43-29.77 138.22-25.66 138.22-21.01ZM130.55-21.01L130.55-21.01Q130.55-24.64 130.25-27.85 129.96-31.05 129.27-33.44 128.58-35.83 127.43-37.21 126.27-38.58 124.54-38.58L124.54-38.58Q122.87-38.58 121.73-37.21 120.59-35.83 119.88-33.44 119.18-31.05 118.86-27.85 118.54-24.64 118.54-21.01L118.54-21.01Q118.54-17.34 118.86-14.14 119.18-10.93 119.9-8.54 120.62-6.15 121.76-4.76 122.9-3.37 124.54-3.37L124.54-3.37Q126.15-3.37 127.29-4.76 128.44-6.15 129.17-8.54 129.9-10.93 130.22-14.14 130.55-17.34 130.55-21.01ZM159.7-42.77L167.49-43.01Q167.34-40.63 167.24-38.07 167.14-35.51 167.07-32.93 166.99-30.35 166.95-27.86 166.9-25.37 166.88-23.17 166.85-20.98 166.85-19.16 166.85-17.34 166.85-16.08L166.85-16.08Q166.85-14.44 166.85-12.45 166.85-10.46 166.88-8.35 166.9-6.24 166.95-4.12 166.99-1.99 167.08-0.12L167.08-0.12Q165.82-0.18 164.78-0.18 163.74-0.18 162.89-0.18L162.89-0.18Q161.37-0.18 160.37-0.15 159.38-0.12 158.79-0.06L158.79-0.06Q158.09 0 157.71 0.06L157.71 0.06Q157.62-0.56 157.34-1.86 157.06-3.16 156.64-4.95 156.21-6.74 155.65-8.91 155.1-11.07 154.47-13.42 153.84-15.76 153.16-18.18 152.49-20.6 151.83-22.9 151.17-25.2 150.54-27.26 149.91-29.33 149.38-30.97L149.38-30.97Q149.15-27.22 149.03-24.04 148.92-20.86 148.86-18.49L148.86-18.49Q148.77-15.73 148.77-13.45L148.77-13.45Q148.77-11.48 148.86-9.29L148.86-9.29Q148.92-7.41 149.08-5.01 149.24-2.61 149.56-0.12L149.56-0.12Q147.3-0.21 145.85-0.22 144.4-0.23 143.55-0.23L143.55-0.23 142.12-0.23Q142.27-5.48 142.35-9.14 142.44-12.8 142.49-15.28 142.53-17.75 142.54-19.25 142.56-20.74 142.56-21.67 142.56-22.59 142.54-23.14 142.53-23.7 142.53-24.29L142.53-24.29Q142.53-25.75 142.51-27.77 142.5-29.79 142.44-32.12 142.38-34.45 142.27-36.97 142.15-39.49 141.94-41.95L141.94-41.95Q144.93-41.95 146.87-42.01 148.8-42.07 149.94-42.13L149.94-42.13Q151.29-42.22 152.02-42.3L152.02-42.3Q152.17-41.37 152.62-39.38 153.08-37.38 153.71-34.76 154.34-32.14 155.13-29.09 155.92-26.04 156.75-22.95 157.59-19.86 158.44-16.95 159.29-14.03 160.05-11.69L160.05-11.69Q160.2-14.18 160.27-16.77 160.34-19.37 160.39-21.62 160.43-23.88 160.43-25.56 160.43-27.25 160.43-27.89L160.43-27.89Q160.4-30.56 160.31-33.22L160.31-33.22Q160.28-34.37 160.22-35.6 160.17-36.83 160.09-38.07 160.02-39.32 159.92-40.52 159.81-41.72 159.7-42.77L159.7-42.77Z" transform="translate(-2.2899999618530273, 43.5099983215332)"></path></g> <!----> <!----> <!----> <!----> <!----> <!----> <!----></g></g> <!----></g></g><defs v-gra="od"></defs></svg>